<svg version="1.1" id="Layer_1" xmlns="http://www.w3.org/2000/svg" x="0" y="0" viewBox="0 0 3000 1100.4" style="enable-background:new 0 0 3000 1100.4" xml:space="preserve"><style>.st3{fill:#1d2c5e}.st7{fill:#21386e}.st12{fill:#7d7f68}.st13{fill:#c7a008}</style><linearGradient id="polygon16_1_" gradientUnits="userSpaceOnUse" x1="2654.538" y1="1827.459" x2="2642.51" y2="1805.044" gradientTransform="translate(-24476.79 -16356.016) scale(9.2764)"><stop offset="0" style="stop-color:#0070b6"/><stop offset="1" style="stop-color:#1d2c5e"/></linearGradient><path id="polygon16" d="m0 407.6 133.7 226.1 53.5-51.2-146-217.2L0 407.6z" style="fill:url(#polygon16_1_)"/><path id="polygon18" d="m1989.2 229.4-5.6 30.1 63.5-21.2-7.8-36.8-50.1 27.9z" style="fill:#0071b9"/><linearGradient id="polygon25_1_" gradientUnits="userSpaceOnUse" x1="2801.23" y1="1781.625" x2="2816.497" y2="1765.267" gradientTransform="translate(-24476.79 -16356.016) scale(9.2764)"><stop offset="0" style="stop-color:#0070b6"/><stop offset="1" style="stop-color:#1d2c5e"/></linearGradient><path id="polygon25" d="m1615 25.6-206 236.1 60.1-16.7 196-245-50.1 25.6z" style="fill:url(#polygon25_1_)"/><path id="polygon27" class="st3" d="m2718.8 348.6 50.1-26.7-14.5 127-35.6-100.3z"/><path id="polygon29" class="st3" d="m2403.6 429.9 45.7 10 56.8-27.8-50.1-18.9-52.4 36.7z"/><linearGradient id="polygon36_1_" gradientUnits="userSpaceOnUse" x1="2734.64" y1="1808.926" x2="2732.82" y2="1793.632" gradientTransform="translate(-24476.79 -16356.016) scale(9.2764)"><stop offset="0" style="stop-color:#0070b6"/><stop offset="1" style="stop-color:#1d2c5e"/></linearGradient><path id="polygon36" d="m853.2 296.3 6.7 145.9 63.5-24.5-18.9-149.2-51.3 27.8z" style="fill:url(#polygon36_1_)"/><linearGradient id="polygon43_1_" gradientUnits="userSpaceOnUse" x1="2901.4" y1="1805.981" x2="2900.673" y2="1792.176" gradientTransform="translate(-24476.79 -16356.016) scale(9.2764)"><stop offset="0" style="stop-color:#125d9e"/><stop offset="1" style="stop-color:#1d2c5e"/></linearGradient><path id="polygon43" d="m2452.6 251.7-50.1 27.8 1.1 150.4 51.2-25.6 15.6-73.5-17.8-79.1z" style="fill:url(#polygon43_1_)"/><path id="polygon45" d="m2445.9 439.9-55.7 494.5 89.1-17.8 16.7-503.4-50.1 26.7z" style="fill:#312370"/><path id="polygon47" class="st7" d="m2553.9 957.9 2.2 66.8 170.4 54.6 51.2-26.7-168.2-130.3-169.3-14.5-50.1 26.7 163.8 23.4z"/><path id="polygon49" class="st7" d="m1921.3 839.8 41.2-22.3 27.8 49 39-21.2 7.8 64.6 248.4 44.6 49-27.8-341.9-208.3-242.8 41.2-46.8 45.7 218.3 34.5z"/><linearGradient id="polygon56_1_" gradientUnits="userSpaceOnUse" x1="2850.462" y1="1786.077" x2="2834.44" y2="1811.565" gradientTransform="translate(-24476.79 -16356.016) scale(9.2764)"><stop offset="0" style="stop-color:#125d9e"/><stop offset="1" style="stop-color:#1d2c5e"/></linearGradient><path id="polygon56" d="m1842.2 231.7-50.1 27.8-89.1 545.8 50.1-26.7 85.8-306.3 3.3-240.6z" style="fill:url(#polygon56_1_)"/><path id="polygon58" class="st3" d="m1445.7 305.2-40.1 21.2 3.3 13.4 94.7-60.1-41.2-44.6-53.5 26.7 36.8 43.4z"/><path id="polygon60" class="st7" d="m1553.7 950.1-404.3-200.5 50.1-39 404.3 211.6-50.1 27.9z"/><path id="polygon62" class="st3" d="M1187.3 203.8 1126 319.7l64.6-18.9 46.8-124.7-50.1 27.7z"/><linearGradient id="path69_1_" gradientUnits="userSpaceOnUse" x1="2708.747" y1="1826.928" x2="2719.67" y2="1848.412" gradientTransform="translate(-24476.79 -16356.016) scale(9.2764)"><stop offset="0" style="stop-color:#105fa1"/><stop offset="1" style="stop-color:#1d2c5e"/></linearGradient><path id="path69" d="m630.4 683.9-51.2 35.6s11.1 57.9 25.6 98c14.5 40.1 47.9 72.4 47.9 72.4 22.3 21.2 47.9 36.8 78 45.7 56.8 16.7 121.4 5.6 177.1-30.1 14.5-8.9 34.5-23.4 46.8-35.6-54.7 33.4-324.2-186-324.2-186z" style="fill:url(#path69_1_)"/><path id="polygon71" class="st3" d="m907.7 431 46.8 520.1 193.8-27.8 51.2-26.7-239.4-496.7-49 16.7-51.2 25.6 47.8-11.2z"/><linearGradient id="polygon78_1_" gradientUnits="userSpaceOnUse" x1="2667.44" y1="1819.639" x2="2680.084" y2="1848.948" gradientTransform="translate(-24476.79 -16356.016) scale(9.2764)"><stop offset="0" style="stop-color:#105fa1"/><stop offset="1" style="stop-color:#1d2c5e"/></linearGradient><path id="polygon78" d="m183.8 611.5 216.1 489 204.9-65.7 50.1-33.4-425.5-445.6-53.4 32.3-42.3 45.7 50.1-22.3z" style="fill:url(#polygon78_1_)"/><path id="path80" class="st3" d="m2321.2 842 3.3 24.5c17.8-2.2 35.6-4.5 52.3-10 18.9-6.7 59-24.5 73.5-37.9-6.6 2.3-100.2 26.8-129.1 23.4"/><path id="path82" class="st3" d="m1596.1 717.3 7.8 39c41.2-6.7 76.9-21.2 112.5-42.3 22.3-13.4 45.7-32.3 53.5-37.9-5.6 3.3-173.8 41.2-173.8 41.2z"/><g id="g84" transform="translate(-5.451 -1.686)"><path id="path86" d="m461.5 1055.5-15.6-35.6L241 563.2l-4.5-8.9-8.9 4.5-6.7 3.3-36.8 17.8c-5.6-8.9-14.5-24.5-20-34.5L81.7 406.2l-21.2-36.8 35.6-22.3c33.4-21.2 71.3-41.2 113.6-59 82.4-34.5 166-53.5 242.8-53.5 25.6 0 50.1 2.2 72.4 5.6 37.9 4.5 73.5 16.7 102.5 36.8 43.4 24.5 78 62.4 96.9 106.9 15.6 36.8 18.9 80.2 8.9 124.7l-5.6 26.7 22.3-15.6c14.5-11.1 30.1-20 46.8-26.7 29-12.3 59-18.9 89.1-18.9 29 0 55.7 5.6 80.2 16.7l15.6 6.7-1.1-17.8-6.7-74.6-1.1-12.3-11.1 3.3-34.5 8.9-5.6-127 253.9-81.3-2.2 99.1 18.9 4.5 55.7-105.8 166 147 6.7 6.7 6.7-6.7c22.3-21.2 50.1-39 80.2-51.2l12.3-5.6-8.9-11.1-30.1-36.8 190.5-219.4 100.2 149.2-152.6 82.4-33.4 17.8 39 1.1c72.4 1.1 137 32.3 180.4 85.8l15.6 20 10 12.3-16.7 17.8-11.1 12.3-37.9 41.2-6.7 7.8 7.8 6.7 35.6 32.3 13.4 12.3 3.3-17.8 13.4-84.6 3.3-22.3 3.3-22.3 20-125.9h189.3l1.1-8.9 3.3-21.2h164.8l40.1 251.7 2.2 16.7 13.4-10c16.7-12.3 34.5-21.2 53.5-29 25.6-10 51.2-14.5 78-14.5 31.2 0 61.3 6.7 86.9 21.2 1.1 0 1.1 1.1 3.3 2.2l12.3 4.5 1.1-13.4 3.3-27.8 1.1-8.9-8.9-2.2-33.4-7.8-1.1-131.4 255.1 55.7 18.9 94.7h20l20-81.3 212.7 51.2-218.3 656-154.8-49-1.1-60.1V923l-8.9-1.1-154.8-22.3 8.9-79.1 2.2-18.9-16.7 8.9c-7.8 4.5-15.6 7.8-23.4 10-25.6 10-51.2 14.5-76.9 14.5-7.8 0-14.5 0-22.3-1.1l-13.4-1.1 2.2 13.4 11.1 69.1-226.1-40.1-11.8-102.6-3.3-33.4-15.6 29-25.6 50.1-47.9-88-14.5-26.7-4.5 30.1-10 67.9-198.3-31.2 15.6-93.6 3.3-21.2-18.9 11.1c-32.3 18.9-70.2 34.5-113.6 44.6-15.6 3.3-31.2 6.7-47.9 7.8l-8.9 1.1v187.1l-389.8-192.7-14.5-6.7v181.5L1021.7 915l-7.8-79.1-2.2-21.2-15.6 14.5c-23.4 22.3-49 40.1-76.9 52.3-29 12.3-59 18.9-88 18.9-30.1 0-57.9-6.7-83.5-17.8-46.7-22-81.2-63.2-95.7-115.6-6.7-24.5-8.9-50.1-5.6-76.9l3.3-27.8-20 20c-14.5 13.4-30.1 26.7-46.8 39l-5.6 4.5 2.2 6.7 59 225 10 40.1-39 12.3-110.3 35.6-37.7 10zm49-604.8c-5.6 0-11.1 0-17.8 1.1l-7.8 1.1-11.1 2.2 3.3 11.1 2.2 6.7 31.2 103.6 3.3 10 4.5 14.5 11.1-10 7.8-6.7c31.2-27.8 41.2-55.7 34.5-91.3-4.5-21.2-20-31.2-30.1-35.6-6.5-4.5-18.8-6.7-31.1-6.7zm848.8 3.3-20 18.9L1287 523l-11.1 11.1 14.5 5.6 55.7 21.2 16.7 6.7-3.3-17.8c-4.5-23.4-5.6-46.8-3.3-69.1l3.1-26.7zm227.2-57.9c-21.2 0-42.3 8.9-56.8 25.6-22.3 24.5-26.7 61.3-11.1 90.2l4.5 7.8 6.7 12.3 10-11.1 6.7-6.7 76.9-86.9 5.6-6.7 10-11.1-13.4-5.6-8.9-3.3c-11.3-2.2-20.2-4.5-30.2-4.5z" style="fill:#ffcb05"/></g><path id="path88" class="st12" d="m1697.4 523.5-2.2 2.2c1.1 0 2.2-1.1 2.2-2.2z"/><path id="polygon90" class="st12" d="m1764.3 463.3 37.9-41.2-13.4 13.4v-1.1l-11.1 12.3-37.9 40.1 35.6 32.3 6.7-40.1 17.8 15.6-35.6-31.3z"/><path id="polygon92" class="st12" d="m1764.3 463.3 35.6 31.2 13.4-84.6-11.1 12.3-37.9 41.1z"/><path id="path96" class="st13" d="M1500.3 564.7c3.3 3.3 0 1.1 3.3 3.3l23.4-16.7c-3.3-2.2-6.7-5.6-10-7.8-33.4-31.2-24.5-100.2-3.3-138.1-58 46.8-54.6 118.1-13.4 159.3"/><path id="path98" class="st13" d="M1782.1 603.7c-39 32.3-82.4 52.3-140.3 66.8-12.3 3.3-25.6 5.6-36.8 5.6-92.4 8.9-169.3-33.4-198.3-101.4-3.3-7.8-6.7-16.7-8.9-25.6-13.4-57.9-2.2-109.2 26.7-150.4 3.3-4.5 5.6-7.8 8.9-11.1-1.1 1.1-3.3 2.2-4.5 3.3-11.1 10-21.2 20-29 32.3-29 40.1-40.1 92.4-26.7 150.4 2.2 8.9 4.5 17.8 8.9 25.6 29 69.1 106.9 111.4 198.3 102.5 12.3-1.1 24.5-3.3 37.9-6.7 57.9-14.5 102.5-34.5 140.3-66.8 8.9-7.8 18.9-16.7 27.8-25.6l-1.1-1.1c-2.1 1.1-3.2 1.1-3.2 2.2"/><path id="polygon100" class="st13" d="M1132.7 428.8 1235.2 284l-4.5-3.3-99.1 139.2 1.1 8.9z"/><path id="polygon102" class="st13" d="m1813.3 409.9-13.4 84.6-17.8-15.6-6.7 40.1-35.6-32.3 37.9-40.1 11.1-12.3v1.1l13.4-13.4 11.1-12.1z"/><path id="polygon104" class="st13" d="m1686.3 171.5 35.6-15.6-65.7-84.6-21.2 31.2 51.3 69z"/><path id="path106" class="st13" d="M688.3 380.9c-167.1-202.7-466.7-93.6-573.6 1.1l4.5 7.8c24.5-14.5 51.2-26.7 78-39 106.9-45.7 209.4-59 290.7-44.6 29 3.3 59 12.3 85.8 30.1 36.8 21.2 64.6 50.1 81.3 88 29 66.8 3.3 155.9-64.6 229.4 85.7-79 144.7-154.7 97.9-272.8z"/><path id="path108" class="st13" d="M1028 617c-1.1-3.3-1.1-7.8-2.2-11.1-8.9-33.4-29-60.1-55.7-78-42.3-29-102.5-34.5-161.5-10-31.2 13.4-57.9 34.5-80.2 59 16.7-14.5 35.6-25.6 55.7-34.5 59-25.6 119.2-18.9 161.5 10 26.7 17.8 46.8 44.6 55.7 78 1.1 3.3 2.2 7.8 2.2 11.1 2.2 13.4 3.3 25.6 3.3 39-1.1 39-15.6 78-39 111.4-3.3 5.6-7.8 10-12.3 15.6 13.4-12.3 25.6-24.5 35.6-39 24.5-33.4 37.9-72.4 40.1-111.4.2-13.3-.9-26.7-3.2-40.1"/><path id="path110" class="st13" d="M864.3 568s24.5-24.5 23.4-24.5c-30.1-1.1-43.4 27.8-44.6 30.1 6.7-3.3 13.4-4.5 21.2-5.6"/><path id="path112" class="st13" d="M921.1 602.6c1.1 4.5 2.2 7.8 2.2 12.3 0 6.7-1.1 12.3-4.5 17.8 4.5-2.2 40.1-20 26.7-55.7 1.2 2.2-25.5 25.6-24.4 25.6"/><path id="path114" class="st13" d="M783 623.7c0-14.5 25.6-51.2 33.4-63.5-40.1 25.6-57.9 60.1-57.9 86.9 0 46.8 41.2 84.6 90.2 84.6 23.4 0 65.7-12.3 93.6-56.8-14.5 10-51.2 32.3-71.3 32.3-49 .1-88-36.7-88-83.5"/><path id="polygon116" class="st13" d="m1127.2 666.1 1.1 188.2 30.1 2.2-6.7-215-24.5 24.6z"/><path id="polygon118" class="st13" d="M955.6 306.3V323l142.6-42.3 10 181.5 24.5-33.4-5.6-181.5-171.5 59z"/><path id="polygon120" class="st13" d="m1384.4 370.9-132.5-122.5-16.7 35.6 118.1 110.3 31.1-23.4z"/><path id="path122" class="st13" d="m1364.4 599.2-157-52.3-22.3 24.5 155.9 62.4c17.8 33.4 44.6 62.4 78 82.4 32.3 20 70.2 32.3 109.2 35.6v76.9l24.5 12.3 7.8-115.8-196.1-126z"/><path id="path124" class="st13" d="M1616.1 578.1c39-8.9 60.1-29 80.2-51.2-14.5 12.3-85.8 27.8-98 31.2l-23.4 25.6c10-.1 27.9-2.3 41.2-5.6"/><path id="path126" class="st13" d="M1545.9 310.7c-71.3 8.9-108 69.1-113.6 75.7 26.7-22.3 59-39 95.8-46.8 88-21.2 164.8 5.6 212.7 64.6l30.1-24.5c-47.9-57.8-137-90.1-225-69"/><path id="path128" class="st13" d="M1784.3 601.5c8.9-6.7 23.4-14.5 32.3-23.4l-94.7-84.6c-7.8 8.9-13.4 23.4-22.3 30.1l84.7 77.9z"/><path id="path130" class="st13" d="M2271 828.7c-99.1-82.4-93.6-257.3-44.6-313L2183 240.6l-95.8 12.3-4.5 24.5h72.4l39 249.5c-49 55.7-72.4 130.3-56.8 199.4 12.3 53.5 45.7 95.8 92.4 120.3 4.5 2.2 10 4.5 14.5 6.7l1.1 3.3 29 4.5c-1 1 2.3-30.2-3.3-32.4z"/><path id="polygon132" class="st13" d="m1889 280.7-4.5 24.5h109.2l32.3 177.1 24.5-24.5-25.6-187.1-135.9 10z"/><path id="polygon134" class="st13" d="m2076.1 623.7-35.6 91.3 8.9 24.5 50.1-139.2-23.4 23.4z"/><path id="polygon136" class="st13" d="m1971.4 566.9-24.5 24.5-26.7 164.8 25.6 8.9 25.6-198.2z"/><path id="path138" class="st13" d="M2462.6 513.5c14.5 10 26.7 23.4 35.6 39 7.8 12.3 12.3 24.5 16.7 40.1 12.3 50.1-2.2 103.6-33.4 145.9-3.3 4.5-6.7 8.9-10 12.3 12.3-11.1 168.2-125.9 16.7-276.2-167.1-54.6-230.6 53.5-236.1 61.3 17.8-14.5 37.9-27.8 60.1-35.6 55.7-22.5 111.4-14.7 150.4 13.2"/><path id="path140" class="st13" d="M2379.1 524.6c0 1.1 24.5-24.5 24.5-24.5-30.1 1.1-44.6 15.6-42.3 22.3-2.2 2.2-3.3 5.6-4.5 7.8 5.6-3.4 17.8-5.6 22.3-5.6"/><path id="path142" class="st13" d="M2434.8 562.5c1.1 4.5 1.1 7.8 1.1 12.3 0 5.6-2.2 11.1-4.5 15.6 4.5-2.2 40.1-13.4 26.7-53.5 1.2 2.2-24.5 25.6-23.3 25.6"/><path id="path144" class="st13" d="M2355.7 688.3c33.4 1.1 71.3-18.9 98-55.7-67.9 14.5-140.3-100.2-133.7-111.4-25.6 18.9-49 54.6-50.1 80.2-2.2 46.8 36.8 84.7 85.8 86.9"/><path id="polygon146" class="st13" d="m2731 985.7 15.6 10 196-588.1-147-33.4-1.1 34.5 118.1 25.6L2731 985.7z"/><path id="polygon148" class="st13" d="m2498.2 310.7 1.1 33.4 155.9 31.2 60.1 285.1 24.5-24.5-57.8-288.4-183.8-36.8z"/><path id="polygon150" class="st13" d="m2618.5 636-43.4 242.8 24.5 7.8 43.4-275.1-24.5 24.5z"/><path id="polygon152" class="st13" d="m594.8 967.9-72.4-265.1-26.7 18.9 67.9 252.8 31.2-6.6z"/><path id="path154" class="st13" d="M575.8 570.3c-16.7 17.8-54.6 52.3-75.7 65.7l-13.4-41.2-27.8-91.3-17.8-61.3-17.8 22.3 17.8 61.3 27.8 90.2 13.4 41.2c30-16.8 72.4-52.4 93.5-86.9"/><path id="path156" class="st12" d="M1609.4 413.2c-23.4-8.9-55.7-6.7-73.5 13.4-4.5 4.5-12.3 15.6-14.5 21.2 16.7-13.4 47.9-16.7 66.8-8.9l21.2-25.7z"/><path id="path158" class="st12" d="M555.8 495.6c-2.2-13.4-15.6-24.5-22.3-27.8-11.1-5.6-32.3-6.7-46.8-3.3 2.2 8.9 5.6 20 6.7 24.5 5.6 1.1 15.6 2.2 21.2 4.5 6.7 3.3 17.8 10 20 24.5 3.3 17.8 2.2 35.6-5.6 49 21.2-20.1 31.2-42.4 26.8-71.4"/><g id="g160" transform="translate(-5.451 -1.686)"><g id="g162"><path id="path164" d="M597.4 496.4c-10-53.5-80.2-83.5-150.4-45.7l17.8 61.3 27.8 91.3 13.4 41.2c52.4-32.3 104.8-73.5 91.4-148.1zm-69 83.5c-7.8-24.5-24.5-78-24.5-78s-3.3-11.1-7.8-24.5c14.5-2.2 29-1.1 40.1 4.5 6.7 3.3 17.8 10 20 24.5 6.7 29-3.3 51.2-27.8 73.5z" style="fill:#3c5aa6"/></g></g><g id="g166" transform="translate(-5.451 -1.686)"><g id="g168"><path id="path170" d="M1651.1 411.7c-39-35.6-99.1-33.4-134.8 5.6-35.6 39-33.4 99.1 5.6 134.8 3.3 3.3 6.7 5.6 10 7.8l125.9-142.6c-2.3-1.1-4.5-3.4-6.7-5.6zM1533 512c-12.3-22.3-10-51.2 8.9-71.3 17.8-18.9 44.6-24.5 67.9-15.6L1533 512z" style="fill:#3567b0"/></g></g><path id="polygon172" d="m1813.3 394.3-69.1 66.8 65.7 59 3.4-125.8z" style="fill:#1e2d5f"/><path id="path174" d="M2458.1 538c1.1 4.5 1.1 8.9 1.1 13.4-1.1 26.7-25.6 46.8-55.7 45.7-30.1-1.1-53.5-23.4-52.3-50.1 1.1-24.5 23.4-44.6 50.1-45.7-5.6-1.1-11.1-2.2-16.7-2.2-50.1-2.2-90.2 33.4-92.4 76.9-2.2 46.8 35.6 85.8 84.6 86.9 50.1 2.2 90.2-33.4 92.4-80.2 3.4-15.8-2.1-31.4-11.1-44.7" style="fill:#3466af"/><linearGradient id="path183_1_" gradientUnits="userSpaceOnUse" x1="2878.951" y1="-727.605" x2="2898.077" y2="-727.605" gradientTransform="matrix(9.2764 0 0 -9.2764 -25923.912 -6124.747)"><stop offset="0" style="stop-color:#3c5aa6"/><stop offset=".933" style="stop-color:#2b73b9"/><stop offset="1" style="stop-color:#2a75bb"/></linearGradient><path id="path183" d="M947.8 591.4c0 26.7-24.5 47.9-53.5 47.9-30.1 0-53.5-21.2-53.5-47.9 0-24.5 21.2-45.7 49-47.9-5.6-1.1-11.1-1.1-16.7-1.1-50.1 0-89.1 36.8-89.1 81.3 0 46.8 39 83.5 88 83.5 50.1 0 89.1-36.8 89.1-83.5 0-16.7-5.6-31.2-14.5-44.6.1 3.4 1.2 7.9 1.2 12.3" style="fill:url(#path183_1_)"/><g id="g185" transform="translate(-5.451 -1.686)"><g id="g187"><linearGradient id="path196_1_" gradientUnits="userSpaceOnUse" x1="2809.881" y1="-717.717" x2="3128.9" y2="-717.717" gradientTransform="matrix(9.2764 0 0 -9.2764 -26019.594 -6123.06)"><stop offset="0" style="stop-color:#3c5aa6"/><stop offset=".933" style="stop-color:#2b73b9"/><stop offset="1" style="stop-color:#2a75bb"/></linearGradient><path id="path196" d="m2773.8 323.7-22.3 91.3-20-101.4-274-60.1 2.2 152.6 41.2 8.9-3.3 27.8s-1.1 0-1.1-1.1c-51.2-26.7-114.7-30.1-173.8-6.7-20 7.8-39 17.8-55.7 30.1l-41.2-260.6h-181.5l-4.5 30.1h-191.6l-22.3 133.7-15.6-20c-46.8-56.8-113.6-88-188.2-90.2l162.6-86.9L1671.1 1.8 1466.2 238l35.6 43.4c-32.3 13.4-60.1 31.2-83.5 53.5l-176-155.9-61.3 116.9 2.2-113.6-275.1 88 7.8 147 46.8-12.3 6.7 74.6c-53.5-24.5-118.1-23.4-177.1 2.2-17.8 7.8-34.5 16.7-49 27.8 10-45.7 7.8-90.2-10-130.3-20-46.8-56.8-86.9-100.2-111.4-31.2-21.2-67.9-33.4-106.9-37.9-94.7-16.7-209.4 0-321.9 47.9-41.2 17.8-80.2 37.9-114.7 60.1l-43.4 27.8 26.7 44.6 82.4 140.3 25.6 42.3 44.6-22.3 6.7-3.3L437 1024.3l20 43.4 45.7-14.5 110.3-35.6 49-15.6-12.3-49-59-225c16.7-12.3 32.3-25.6 46.8-40.1-3.3 26.7-1.1 54.6 5.6 80.2 15.6 54.6 51.2 98 101.4 121.4 53.5 25.6 119.2 25.6 179.3 0 30.1-13.4 57.9-31.2 80.2-54.6l7.8 90.2 193.8-29V722.5L1609.9 923V730.3c16.7-1.1 32.3-4.5 49-7.8 44.6-11.1 82.4-25.6 116.9-45.7l-16.7 103.6 218.3 34.5 12.3-79.1 56.8 105.8 34.5-66.8 12.3 110.3 247.3 43.4-13.4-83.5c33.4 3.3 69.1-1.1 103.6-13.4 7.8-3.3 16.7-6.7 23.4-11.1l-10 89.1L2609 933l1.1 67.9 171.5 53.5 223.9-673.8-231.7-56.9zM1807 424l11.1-12.3-13.4 84.6-35.6-32.3 37.9-40zM1662.2 76.5l60.1 81.3-171.5 84.6-12.3-17.8c.1 1.1 123.7-148.1 123.7-148.1zM527.3 704.6l67.9 262.9-110.3 35.6-227.2-507.8c-12.3 6.7-35.6 17.8-55.7 27.8l-82.4-139.2c32.3-21.2 69.1-39 106.9-55.7 106.9-45.7 209.4-59 290.7-44.6 29 3.3 59 12.3 85.8 30.1 36.8 21.2 64.6 50.1 81.3 88 40.1 91.3-25.6 222.8-157 302.9zm509-46.7c-1.1 39-15.6 78-40.1 111.4-23.4 32.3-54.6 57.9-92.4 74.6-95.8 41.2-191.6 0-217.2-91.3-24.5-88 33.4-192.7 125.9-232.8 59-25.6 119.2-18.9 161.5 10 26.7 17.8 46.8 44.6 55.7 78 1.1 3.3 2.2 7.8 2.2 11.1 4.4 13.4 4.4 26.7 4.4 39zm522.3 186-402.1-200.5 1.1 210.5-103.6 14.5-7.8-86.9c32.3-54.6 43.4-120.3 26.7-179.3-8.9-32.3-25.6-61.3-49-83.5l-14.5-177.1-46.8 12.3-2.2-44.6 167.1-50.1 10 171.5L1260.1 258l121.4 114.7-168.2 177.1 158.2 62.4c17.8 33.4 44.6 61.3 78 82.4 32.3 20 70.2 32.3 109.2 35.6l-.1 113.7zm-208.3-291.8-55.7-21.2 52.3-50.1c-3.2 23.4-2.1 46.8 3.4 71.3zm436.7 53.4c-39 32.3-82.4 52.3-140.3 66.8-12.3 3.3-25.6 5.6-36.8 5.6-92.4 8.9-169.3-33.4-198.3-101.4-3.3-7.8-6.7-16.7-8.9-25.6-13.4-57.9-2.2-109.2 26.7-150.4 7.8-12.3 17.8-22.3 29-32.3 26.7-24.5 61.3-41.2 100.2-51.2 88-21.2 164.8 5.6 212.7 63.5l-167.1 178.2c11.1 2.2 29-1.1 42.3-4.5 40.1-10 62.4-31.2 81.3-53.5l66.8 60.1 20 17.8c-8.7 10.2-17.6 19.1-27.6 26.9zm355.3 237.3-36.8-240.6-51.2 132.5-76.9-166h-1.1l-30.1 192.7-128.1-22.3 17.8-106.9c4.5-4.5 10-8.9 14.5-14.5l41.2-42.3-40.1-36.8 43.4-256.2h129.2l32.3 177.1 36.8-204.9h92.4l39 249.5c-49 55.7-72.4 130.3-56.8 199.4 12.3 53.5 45.7 95.8 92.4 121.4 4.5 2.2 10 4.5 14.5 6.7l4.5 32.3-136.9-21.1zm319.6-79.1c-14.5 10-30.1 18.9-46.8 24.5-33.4 12.3-65.7 15.6-95.8 8.9-20-4.5-39-12.3-55.7-23.4-25.6-18.9-44.6-45.7-53.5-80.2-10-41.2-1.1-85.8 21.2-124.7 11.1-18.9 25.6-36.8 42.3-52.3 18.9-16.7 41.2-31.2 64.6-40.1 56.8-21.2 112.5-13.4 151.5 14.5 14.5 10 26.7 23.4 35.6 39 6.7 12.3 12.3 25.6 15.6 40.1 12.3 50.1-2.2 103.6-33.4 145.9-9.9 18.8-26.6 34.4-45.6 47.8zm289.6 227.2-94.7-27.8-7.8-349.7-47.9 269.5-103.6-16.7 7.8-78c67.9-56.8 103.6-147 83.5-229.4-8.9-35.6-26.7-67.9-53.5-91.3l8.9-91.3-39-10 1.1-49 178.2 35.6 60.1 284 61.3-255.1 135.9 30.1-190.3 579.1z" style="fill:url(#path196_1_)"/></g></g><path id="path198" d="M2873.6 950.1h4.5c5.6 0 10-2.2 10-7.8 0-3.3-3.3-7.8-10-7.8h-4.5v15.6zm0 23.4h-6.7v-42.3c3.3-1.1 6.7-1.1 12.3-1.1 6.7 0 11.1 1.1 13.4 3.3 2.2 2.2 4.5 4.5 4.5 8.9 0 5.6-3.3 8.9-7.8 10 3.3 1.1 6.7 4.5 6.7 10 1.1 6.7 2.2 8.9 2.2 10h-6.7c-1.1-1.1-2.2-5.6-3.3-11.1-1.1-5.6-3.3-7.8-8.9-7.8h-5.6l-.1 20.1zm7.8-54.6c-16.7 0-30.1 14.5-30.1 32.3s13.4 32.3 31.2 32.3c16.7 0 30.1-14.5 30.1-32.3-1.1-17.8-14.5-32.3-31.2-32.3zm0-5.6c21.2 0 36.8 16.7 36.8 37.9s-16.7 37.9-37.9 37.9-37.9-16.7-37.9-37.9c1.1-21.2 17.8-37.9 39-37.9z"/></svg>